<svg width="22" height="22" viewBox="0 0 22 22" fill="none" xmlns="http://www.w3.org/2000/svg">
<path d="M11 0.5C8.15056 0.5 7.79225 0.513125 6.67269 0.563C5.55313 0.6155 4.79056 0.791375 4.1225 1.05125C3.42175 1.31483 2.78702 1.72827 2.26269 2.26269C1.7286 2.78729 1.3152 3.42194 1.05125 4.1225C0.791375 4.78925 0.614188 5.55312 0.563 6.66875C0.513125 7.79094 0.5 8.14794 0.5 11.0013C0.5 13.8521 0.513125 14.2091 0.563 15.3286C0.6155 16.4469 0.791375 17.2094 1.05125 17.8775C1.32031 18.5679 1.67863 19.1532 2.26269 19.7373C2.84544 20.3214 3.43081 20.681 4.12119 20.9487C4.79056 21.2086 5.55181 21.3858 6.67006 21.437C7.79094 21.4869 8.14794 21.5 11 21.5C13.8521 21.5 14.2078 21.4869 15.3286 21.437C16.4456 21.3845 17.2108 21.2086 17.8788 20.9487C18.5791 20.685 19.2134 20.2716 19.7373 19.7373C20.3214 19.1532 20.6797 18.5679 20.9487 17.8775C21.2073 17.2094 21.3845 16.4469 21.437 15.3286C21.4869 14.2091 21.5 13.8521 21.5 11C21.5 8.14794 21.4869 7.79094 21.437 6.67006C21.3845 5.55313 21.2073 4.78925 20.9487 4.1225C20.6848 3.42192 20.2714 2.78726 19.7373 2.26269C19.2131 1.72807 18.5784 1.3146 17.8775 1.05125C17.2081 0.791375 16.4442 0.614188 15.3273 0.563C14.2064 0.513125 13.8508 0.5 10.9974 0.5H11.0013H11ZM10.0589 2.39263H11.0013C13.8048 2.39263 14.1369 2.40181 15.2433 2.453C16.2671 2.49894 16.8236 2.67088 17.1937 2.81394C17.6832 3.00425 18.0337 3.23262 18.4012 3.60012C18.7687 3.96762 18.9958 4.31675 19.1861 4.80763C19.3304 5.17644 19.5011 5.73294 19.547 6.75669C19.5982 7.86313 19.6087 8.19519 19.6087 10.9974C19.6087 13.7996 19.5982 14.1329 19.547 15.2394C19.5011 16.2631 19.3291 16.8183 19.1861 17.1884C19.0177 17.6443 18.749 18.0566 18.3999 18.3946C18.0324 18.7621 17.6833 18.9892 17.1924 19.1795C16.8249 19.3239 16.2684 19.4945 15.2433 19.5418C14.1369 19.5916 13.8048 19.6034 11.0013 19.6034C8.19781 19.6034 7.86444 19.5916 6.758 19.5418C5.73425 19.4945 5.17906 19.3239 4.80894 19.1795C4.35284 19.0114 3.94023 18.7432 3.60144 18.3946C3.25199 18.056 2.98289 17.6434 2.81394 17.1871C2.67088 16.8183 2.49894 16.2618 2.453 15.2381C2.40313 14.1316 2.39263 13.7996 2.39263 10.9947C2.39263 8.19125 2.40313 7.8605 2.453 6.75406C2.50025 5.73031 2.67088 5.17381 2.81525 4.80369C3.00556 4.31413 3.23394 3.96369 3.60144 3.59619C3.96894 3.22869 4.31806 3.00163 4.80894 2.81131C5.17906 2.66694 5.73425 2.49631 6.758 2.44906C7.72663 2.40444 8.102 2.39131 10.0589 2.39V2.39263V2.39263ZM16.6057 4.13562C16.4402 4.13562 16.2764 4.16822 16.1235 4.23154C15.9706 4.29486 15.8317 4.38767 15.7147 4.50467C15.5977 4.62167 15.5049 4.76057 15.4416 4.91344C15.3783 5.06631 15.3457 5.23016 15.3457 5.39563C15.3457 5.56109 15.3783 5.72494 15.4416 5.87781C15.5049 6.03068 15.5977 6.16958 15.7147 6.28658C15.8317 6.40358 15.9706 6.49639 16.1235 6.55971C16.2764 6.62303 16.4402 6.65563 16.6057 6.65563C16.9399 6.65563 17.2603 6.52288 17.4966 6.28658C17.7329 6.05028 17.8657 5.7298 17.8657 5.39563C17.8657 5.06145 17.7329 4.74097 17.4966 4.50467C17.2603 4.26837 16.9399 4.13562 16.6057 4.13562V4.13562ZM11.0013 5.60825C10.2861 5.59709 9.5758 5.72832 8.91178 5.99431C8.24777 6.2603 7.6433 6.65572 7.13357 7.15756C6.62384 7.65939 6.21904 8.25762 5.94273 8.9174C5.66642 9.57719 5.52412 10.2853 5.52412 11.0007C5.52412 11.716 5.66642 12.4241 5.94273 13.0839C6.21904 13.7437 6.62384 14.3419 7.13357 14.8438C7.6433 15.3456 8.24777 15.741 8.91178 16.007C9.5758 16.273 10.2861 16.4042 11.0013 16.3931C12.4169 16.371 13.767 15.7931 14.7603 14.7843C15.7535 13.7754 16.3102 12.4164 16.3102 11.0007C16.3102 9.5849 15.7535 8.22592 14.7603 7.21705C13.767 6.20818 12.4169 5.63034 11.0013 5.60825V5.60825ZM11.0013 7.49956C11.9297 7.49956 12.82 7.86836 13.4765 8.52482C14.133 9.18128 14.5018 10.0716 14.5018 11C14.5018 11.9284 14.133 12.8187 13.4765 13.4752C12.82 14.1316 11.9297 14.5004 11.0013 14.5004C10.0729 14.5004 9.18259 14.1316 8.52613 13.4752C7.86967 12.8187 7.50088 11.9284 7.50088 11C7.50088 10.0716 7.86967 9.18128 8.52613 8.52482C9.18259 7.86836 10.0729 7.49956 11.0013 7.49956V7.49956Z" fill="#BDBDBD"/>
</svg>
