<svg width="15" height="14" viewBox="0 0 15 14" fill="none" xmlns="http://www.w3.org/2000/svg">
<path d="M12.9225 9.44483L11.0175 9.22733C10.7935 9.20102 10.5665 9.22582 10.3534 9.29986C10.1404 9.3739 9.9469 9.49526 9.7875 9.65483L8.4075 11.0348C6.27839 9.95199 4.54783 8.22143 3.465 6.09233L4.8525 4.70482C5.175 4.38232 5.3325 3.93233 5.28 3.47483L5.0625 1.58483C5.01998 1.21896 4.84439 0.881502 4.56918 0.636711C4.29396 0.391919 3.93833 0.256888 3.57 0.257325H2.2725C1.425 0.257325 0.72 0.962325 0.7725 1.80983C1.17 8.21482 6.2925 13.3298 12.69 13.7273C13.5375 13.7798 14.2425 13.0748 14.2425 12.2273V10.9298C14.25 10.1723 13.68 9.53483 12.9225 9.44483Z" fill="#BDBDBD"/>
</svg>
